<svg id="Layer_1" data-name="Layer 1" xmlns="http://www.w3.org/2000/svg" viewBox="0 0 512 512"><defs><style>.cls-1{fill:#141f38;}</style></defs><title>calendar-outline</title><path class="cls-1" d="M102.4,332.8a12.8,12.8,0,0,0,0,25.6H128V384a12.8,12.8,0,1,0,25.6,0V358.4h51.2V384a12.8,12.8,0,0,0,25.6,0V358.4h51.2V384a12.8,12.8,0,0,0,25.6,0V358.4h51.2V384a12.8,12.8,0,0,0,25.6,0V358.4h25.6a12.8,12.8,0,0,0,0-25.6H384V281.6h25.6a12.8,12.8,0,0,0,0-25.6H384V230.4a12.8,12.8,0,0,0-25.6,0V256H307.2V230.4a12.8,12.8,0,1,0-25.6,0V256H230.4V230.4a12.8,12.8,0,0,0-25.6,0V256H153.6V230.4a12.8,12.8,0,1,0-25.6,0V256H102.4a12.8,12.8,0,0,0,0,25.6H128v51.2Zm256-51.2v51.2H307.2V281.6Zm-76.8,0v51.2H230.4V281.6Zm-128,0h51.2v51.2H153.6ZM448,38.4H409.6a38.4,38.4,0,0,0-76.8,0H179.2a38.4,38.4,0,1,0-76.8,0H64a64,64,0,0,0-64,64V428.8A83.2,83.2,0,0,0,83.2,512H428.8A83.2,83.2,0,0,0,512,428.8V102.4A64,64,0,0,0,448,38.4Zm-89.6,0a12.8,12.8,0,0,1,25.6,0V64a12.8,12.8,0,0,1-25.6,0ZM128,38.4a12.8,12.8,0,1,1,25.6,0V64A12.8,12.8,0,1,1,128,64Zm-102.4,64A38.33,38.33,0,0,1,42.54,70.57,38.18,38.18,0,0,1,64,64h38.4a38.4,38.4,0,1,0,76.8,0H332.8a38.4,38.4,0,0,0,76.8,0H448a38.44,38.44,0,0,1,38.2,34.48,38.69,38.69,0,0,1,.2,3.92v51.2H25.6Zm403.2,384H83.2a57.56,57.56,0,0,1-53-35.33A63.61,63.61,0,0,0,64,460.8H448a63.61,63.61,0,0,0,33.8-9.73A57.56,57.56,0,0,1,428.8,486.4Zm57.6-89.6A38.44,38.44,0,0,1,448,435.2H64a38.44,38.44,0,0,1-38.4-38.4V179.2H486.4Z"/></svg>